<svg xmlns="http://www.w3.org/2000/svg" width="160" height="48" viewBox="0 0 160 48">
  <g id="Group_1601" data-name="Group 1601" transform="translate(-984 -4382.932)">
    <g id="Group_1598" data-name="Group 1598">
      <rect id="Rectangle_24" data-name="Rectangle 24" width="160" height="48" rx="4" transform="translate(984 4382.932)" fill="#5e2e88"/>
      <path id="Path_88" data-name="Path 88" d="M7,0H76a4,4,0,0,1,4,4V44a4,4,0,0,1-4,4H-13Z" transform="translate(1064 4382.932)" fill="#fff" opacity="0.03"/>
    </g>
    <g id="Group_60" data-name="Group 60" transform="translate(23 140)">
      <g id="Group_58" data-name="Group 58" transform="translate(4)">
        <text id="Tải_về_từ" data-name="Tải về từ" transform="translate(1021 4263)" fill="#fff" font-size="12" font-family="VETCRegular-Regular, VETC"><tspan x="0" y="0">Tải về từ</tspan></text>
        <text id="App_Store" data-name="App Store" transform="translate(1021 4279)" fill="#fff" font-size="14" font-family="VETC-Bold, VETC" font-weight="700"><tspan x="0" y="0">App Store</tspan></text>
      </g>
      <g id="Group_57" data-name="Group 57" transform="translate(988.514 4255)">
        <path id="Path_85" data-name="Path 85" d="M17.063,7.079a5.427,5.427,0,0,1,2.593-4.567A5.6,5.6,0,0,0,15.266.131c-1.868-.188-3.647,1.1-4.6,1.1S8.26.16,6.712.19A5.87,5.87,0,0,0,1.745,3.2C-.371,6.871,1.2,12.311,3.267,15.29c1.007,1.455,2.21,3.1,3.788,3.037,1.522-.06,2.1-.982,3.931-.982s2.353.982,3.963.951c1.634-.029,2.672-1.486,3.673-2.947a13.208,13.208,0,0,0,1.661-3.416,5.3,5.3,0,0,1-3.221-4.855h0Z" transform="translate(0.745 5.671)" fill="#fff" fill-rule="evenodd"/>
        <path id="Path_86" data-name="Path 86" d="M3.694,3.833A5.286,5.286,0,0,0,4.941,0,5.378,5.378,0,0,0,1.406,1.819,5.018,5.018,0,0,0,.133,5.531a4.453,4.453,0,0,0,3.561-1.7Z" transform="translate(11.094)" fill="#fff" fill-rule="evenodd"/>
      </g>
    </g>
  </g>
</svg>
