<svg xmlns="http://www.w3.org/2000/svg" width="56" height="28" viewBox="0 0 56 28">
    <g fill="none" fill-rule="evenodd">
        <g>
            <g>
                <path fill="#FAFAFB" d="M3.934 24.8L2.497 27.114.988 24.8 0 24.8 2.15 28 2.75 28 4.8 24.8zM5.6 28L6.4 28 6.4 24.8 5.6 24.8zM8 24.8L8 28 11.2 28 11.2 27.398 8.719 27.398 8.719 26.604 10.149 26.604 10.149 26.059 8.719 26.059 8.719 25.347 11.17 25.347 11.17 24.8zM12 24.8L12 25.37 13.593 25.37 13.593 28 14.398 28 14.398 25.37 16 25.37 16 24.8z" transform="translate(-7 -16) translate(7 16)"/>
                <g>
                    <path fill="#FAFAFB" d="M11.93 24.536h.557l2.456 2.04c.143.115.279.236.4.378-.021-.29-.034-.49-.034-.599v-1.819h.731V28h-.555l-2.564-2.142c-.103-.087-.197-.173-.291-.281.027.268.032.45.032.55V28h-.731v-3.464zM19.057 24.536h.785L21.845 28h-.913l-.419-.76H18.3l-.405.76h-.813l1.976-3.464zm1.117 2.081l-.75-1.41-.778 1.41h1.528zM22.893 24.536h.656l1.646 2.095 1.61-2.095h.652V28h-.753v-2.142c0-.066.008-.188.026-.369-.073.155-.142.282-.202.364l-1.313 1.73h-.162l-1.312-1.738c-.08-.106-.157-.221-.21-.356.013.14.018.256.018.37v2.14h-.656v-3.463zM31.65 24.536h2.99c.535 0 .788.188.788.671v.772c0 .485-.253.671-.788.671h-2.192V28h-.798v-3.464zm.798.598v.92h1.827c.251 0 .365-.047.365-.275v-.37c0-.228-.114-.275-.365-.275h-1.827zM37.401 24.536h2.571c.657 0 .867.169.867.82v1.825c0 .65-.21.819-.867.819h-2.571c-.656 0-.866-.169-.866-.819v-1.825c0-.651.21-.82.866-.82zm-.055 2.812h2.681v-2.194h-2.681v2.194zM43.22 25.141v.744h2.18c.657 0 .872.169.872.819v.477c0 .65-.215.819-.873.819H43.24c-.657 0-.873-.168-.873-.82v-.117h.718v.285h2.47v-.79h-2.18c-.656 0-.864-.17-.864-.82v-.382c0-.651.208-.82.865-.82h1.983c.623 0 .867.163.867.76v.082h-.718v-.237H43.22zM49.513 28L48.7 28 48.7 25.154 47.097 25.154 47.097 24.537 51.123 24.537 51.123 25.154 49.513 25.154z" transform="translate(-7 -16) translate(7 16) translate(4.8)"/>
                    <path fill="#FBAF17" d="M18.567 12.712h16.364l2.038-2.246H20.607l-2.04 2.246M21.625 9.345h16.36l2.04-2.246H23.661l-2.037 2.246M24.681 5.977h16.36L43.08 3.73H26.72c-.621.687-1.315 1.45-2.039 2.246M45.391.13L30.722.128c-.498 0-.953.23-1.255.575L27.738 2.61h16.358L45.711.83c.063-.07.102-.165.102-.268 0-.224-.195-.432-.422-.432" transform="translate(-7 -16) translate(7 16) translate(4.8)"/>
                    <path fill="#FBAF17" d="M17.447 13.834l.003-1.994c0-.298-.143-.566-.37-.728L9.265 5.966c-.145-.1-.321-.157-.512-.157-.189 0-.366.058-.511.157L.408 11.12c-.219.164-.364.426-.364.718 0 .3.145.58.37.743l12.132 8.065c.335.222.759.382 1.19.382h12.487c.741-.008 1.435-.323 1.907-.82l5.784-6.374H17.447zm-3.313 3.252c0 .178-.145.323-.326.323-.069 0-.133-.022-.186-.057L5.75 12.168c-.075-.06-.122-.15-.122-.253 0-.179.146-.323.325-.323h7.854c.18 0 .326.144.326.323v5.171z" transform="translate(-7 -16) translate(7 16) translate(4.8)"/>
                </g>
            </g>
        </g>
    </g>
</svg>
